<?xml version="1.0" standalone="no"?>
<!DOCTYPE svg PUBLIC "-//W3C//DTD SVG 20010904//EN"
 "http://www.w3.org/TR/2001/REC-SVG-20010904/DTD/svg10.dtd">
<svg version="1.0" xmlns="http://www.w3.org/2000/svg"
 width="1488.000000pt" height="1488.000000pt" viewBox="0 0 1488.000000 1488.000000"
 preserveAspectRatio="xMidYMid meet">
<metadata>
Created by potrace 1.11, written by Peter Selinger 2001-2013
</metadata>
<g transform="translate(0.000000,1488.000000) scale(0.100000,-0.100000)"
fill="#000000" stroke="none">
<path d="M3403 9443 c9 -2 25 -2 35 0 9 3 1 5 -18 5 -19 0 -27 -2 -17 -5z"/>
<path d="M1890 9393 c-15 -4 -58 -89 -174 -345 -28 -62 -79 -172 -129 -278
-20 -42 -41 -87 -46 -100 -6 -14 -15 -32 -20 -40 -28 -49 -81 -168 -81 -182 0
-10 -4 -18 -10 -18 -5 0 -10 -6 -10 -14 0 -7 -9 -24 -19 -38 -11 -13 -23 -38
-27 -54 -4 -16 -17 -47 -30 -70 -13 -22 -24 -48 -24 -56 0 -9 -7 -21 -15 -28
-8 -7 -19 -29 -25 -50 -5 -20 -22 -54 -36 -75 -14 -21 -32 -58 -41 -84 -8 -25
-35 -84 -59 -130 -24 -46 -44 -91 -44 -101 0 -9 -9 -25 -20 -35 -11 -10 -20
-23 -20 -29 0 -7 -9 -29 -19 -49 -11 -21 -27 -60 -37 -87 -10 -28 -22 -50 -26
-50 -4 0 -8 -5 -8 -10 0 -6 -12 -34 -26 -63 -14 -28 -45 -97 -69 -152 -24 -55
-78 -169 -119 -253 -42 -84 -76 -156 -76 -161 0 -4 -31 -69 -68 -143 -38 -75
-79 -160 -92 -189 -12 -30 -44 -99 -70 -154 -26 -55 -62 -134 -80 -175 -17
-41 -37 -79 -43 -85 -7 -5 -13 -18 -15 -29 -4 -21 -17 -53 -31 -76 -6 -8 -24
-46 -42 -85 -18 -38 -54 -117 -80 -174 -36 -78 -45 -108 -37 -118 8 -11 1147
-13 6313 -13 l6302 0 27 21 c14 11 26 26 26 33 0 7 6 26 14 42 8 16 26 56 42
89 15 33 60 129 101 214 40 85 73 160 73 167 0 7 4 14 8 16 5 2 23 37 42 78
18 41 66 143 106 227 41 84 74 155 74 158 0 15 63 135 71 135 5 0 9 9 9 20 0
12 31 85 69 163 38 78 78 165 90 192 12 28 49 106 83 175 33 69 75 157 93 195
73 159 89 191 100 205 7 8 15 28 19 43 6 27 24 65 72 158 12 23 25 34 34 32
13 -4 13 -3 1 5 -12 9 -10 21 16 74 16 35 36 79 43 98 8 19 22 47 32 62 10 14
18 31 18 36 0 6 7 23 15 39 9 15 20 39 25 53 6 14 14 32 19 40 5 8 22 42 37
75 15 33 31 67 36 75 4 8 11 22 14 30 7 20 32 74 92 200 27 58 67 141 87 185
37 80 97 208 162 341 19 40 33 82 31 95 l-3 24 -6305 1 c-3468 1 -6312 0
-6320 -3z"/>
<path d="M13325 6749 c-4 -6 -5 -12 -2 -15 2 -3 7 2 10 11 7 17 1 20 -8 4z"/>
<path d="M12895 5861 c-3 -5 -1 -12 5 -16 5 -3 10 1 10 9 0 18 -6 21 -15 7z"/>
</g>
</svg>
